<svg xmlns="http://www.w3.org/2000/svg" xmlns:xlink="http://www.w3.org/1999/xlink" width="500" zoomAndPan="magnify" viewBox="0 0 375 374.999991" height="500" preserveAspectRatio="xMidYMid meet" version="1.0"><defs><g/></defs><g fill="#000000" fill-opacity="1"><g transform="translate(126.880531, 198.099692)"><g><path d="M 75.6875 -75.839844 C 72.652344 -77.476562 68.714844 -78.554688 64.019531 -79.167969 C 59.257812 -79.699219 53.539062 -79.515625 46.804688 -78.535156 L 46.738281 -78.453125 C 42.132812 -77.734375 38.378906 -76.746094 35.566406 -75.355469 C 32.757812 -73.964844 30.554688 -72.5 29.046875 -70.824219 C 27.464844 -69.136719 26.570312 -67.3125 26.203125 -65.480469 C 25.832031 -63.644531 25.902344 -61.863281 26.394531 -60.285156 C 26.796875 -58.84375 27.484375 -57.511719 28.371094 -56.355469 C 29.261719 -55.195312 30.34375 -54.289062 31.542969 -53.617188 C 32.679688 -52.863281 33.84375 -52.484375 35.113281 -52.492188 C 36.304688 -52.488281 37.523438 -52.863281 38.683594 -53.75 C 36.742188 -56.195312 35.625 -58.59375 35.492188 -60.886719 C 35.292969 -63.097656 35.78125 -65.171875 36.886719 -67.097656 C 37.925781 -68.9375 39.433594 -70.617188 41.488281 -72.0625 C 43.472656 -73.5 45.714844 -74.671875 48.140625 -75.566406 C 50.5625 -76.464844 52.949219 -77.054688 55.445312 -77.363281 C 57.867188 -77.664062 60.105469 -77.640625 62.164062 -77.300781 C 65.0625 -76.761719 67.289062 -75.621094 68.921875 -73.886719 C 70.476562 -72.140625 71.558594 -70.035156 72.066406 -67.714844 C 72.539062 -65.089844 72.28125 -62.375 71.265625 -59.714844 C 70.261719 -56.980469 68.78125 -54.488281 66.832031 -52.160156 C 65.140625 -50.160156 63.347656 -48.375 61.367188 -46.9375 C 59.308594 -45.492188 57.351562 -44.429688 55.339844 -43.808594 C 53.476562 -43.207031 51.78125 -43.070312 50.183594 -43.320312 C 48.515625 -43.5625 47.222656 -44.371094 46.214844 -45.886719 C 46.941406 -47.242188 47.667969 -48.601562 48.402344 -49.882812 C 49.140625 -51.167969 49.949219 -52.460938 50.683594 -53.742188 C 52.652344 -57.117188 54.742188 -60.132812 56.792969 -62.847656 C 58.839844 -65.558594 60.957031 -67.757812 63.066406 -69.359375 C 61.132812 -68.75 59.175781 -67.6875 57.28125 -66.113281 C 55.390625 -64.535156 53.449219 -62.730469 51.558594 -60.558594 C 49.589844 -58.378906 47.578125 -55.96875 45.664062 -53.347656 C 43.753906 -50.726562 41.832031 -48.175781 39.917969 -45.554688 C 37.933594 -42.925781 36.011719 -40.378906 34.082031 -37.902344 C 32.148438 -35.425781 30.175781 -33.320312 28.316406 -31.449219 C 26.398438 -29.5 24.503906 -27.921875 22.632812 -26.796875 C 20.683594 -25.664062 18.820312 -25.058594 16.949219 -25.125 C 15.316406 -25.074219 14.058594 -25.589844 13.050781 -26.507812 C 12.042969 -27.429688 11.226562 -28.59375 10.679688 -30.019531 C 10.066406 -31.359375 9.65625 -32.871094 9.457031 -34.488281 C 9.257812 -36.105469 9.148438 -37.582031 9.261719 -39.085938 C 7.480469 -37.820312 5.851562 -36.503906 4.402344 -34.980469 C 2.949219 -33.460938 1.652344 -31.882812 0.53125 -30.105469 C -0.664062 -28.320312 -1.621094 -26.410156 -2.265625 -24.394531 C -2.984375 -22.367188 -3.410156 -20.375 -3.449219 -18.285156 C -3.601562 -15.878906 -3.246094 -13.613281 -2.535156 -11.464844 C -1.820312 -9.316406 -0.621094 -7.453125 0.898438 -6 C 2.355469 -4.464844 4.207031 -3.351562 6.390625 -2.578125 C 8.574219 -1.804688 11.125 -1.671875 14.0625 -2.035156 C 16.117188 -2.289062 18.15625 -3.285156 20.324219 -5.042969 C 22.355469 -6.710938 24.394531 -8.902344 26.445312 -11.613281 C 28.496094 -14.328125 30.5 -17.40625 32.523438 -20.9375 C 34.484375 -24.386719 36.496094 -27.988281 38.503906 -31.664062 C 40.507812 -35.34375 42.570312 -39.175781 44.632812 -43.007812 C 44.890625 -43.335938 45.054688 -43.804688 45.292969 -44.28125 C 45.273438 -42.640625 45.664062 -41.269531 46.480469 -40.105469 C 47.304688 -38.863281 48.386719 -37.953125 49.667969 -37.21875 C 51.285156 -36.226562 53.070312 -35.625 55.183594 -35.441406 C 57.292969 -35.253906 59.355469 -35.433594 61.359375 -36.128906 C 64.371094 -37.097656 67.199219 -38.339844 69.6875 -39.914062 C 72.183594 -41.414062 74.425781 -43.183594 76.421875 -45.144531 C 78.957031 -47.542969 80.859375 -50.238281 82.222656 -53.089844 C 83.511719 -55.933594 84.195312 -58.851562 84.289062 -61.695312 C 84.3125 -64.53125 83.621094 -67.128906 82.265625 -69.644531 C 80.917969 -72.085938 78.730469 -74.128906 75.6875 -75.839844 Z M 75.6875 -75.839844 "/></g></g></g><g fill="#000000" fill-opacity="1"><g transform="translate(140.443566, 239.40088)"><g><path d="M 76.113281 -9.625 C 78.488281 -9.695312 80.867188 -10.359375 83.234375 -11.695312 C 85.605469 -13.03125 87.609375 -14.921875 89.246094 -17.359375 C 87.117188 -17.691406 85.484375 -18.234375 84.328125 -19.136719 C 83.175781 -20.039062 82.378906 -21.058594 81.847656 -22.332031 C 81.03125 -24.097656 80.851562 -26.160156 81.148438 -28.582031 C 81.445312 -31.003906 81.964844 -33.453125 82.691406 -36.003906 C 83.007812 -37.085938 83.503906 -38.492188 84.3125 -40.378906 C 85.058594 -42.1875 86 -44.238281 87.203125 -46.550781 C 88.347656 -48.777344 89.625 -51.097656 91.023438 -53.65625 C 92.421875 -56.214844 93.976562 -58.71875 95.605469 -61.230469 C 97.242188 -63.667969 98.894531 -65.960938 100.625 -68.261719 C 102.351562 -70.5625 104.191406 -72.578125 106.066406 -74.300781 C 106.453125 -74.792969 106.753906 -75.351562 106.894531 -76.042969 C 107.042969 -76.65625 107.035156 -77.324219 106.878906 -77.976562 C 106.660156 -78.546875 106.367188 -79.105469 105.863281 -79.566406 C 105.359375 -80.027344 104.652344 -80.3125 103.898438 -80.367188 L 103.589844 -80.476562 C 101.457031 -78.425781 98.628906 -76.585938 95.246094 -74.976562 C 91.878906 -73.292969 88.058594 -72.222656 83.792969 -71.773438 C 78.796875 -71.15625 74.347656 -70.976562 70.449219 -71.167969 C 66.550781 -71.355469 62.859375 -71.644531 59.382812 -72.035156 C 55.914062 -72.355469 52.53125 -72.605469 49.226562 -72.796875 C 45.921875 -72.984375 42.5 -72.933594 38.828125 -72.480469 C 34.277344 -71.917969 30.925781 -70.683594 28.621094 -68.832031 C 26.316406 -66.984375 24.925781 -64.949219 24.382812 -62.71875 C 23.921875 -61.023438 23.816406 -59.445312 24.164062 -57.847656 C 24.507812 -56.25 25.132812 -54.835938 26.019531 -53.679688 C 26.84375 -52.4375 27.917969 -51.601562 29.253906 -51.023438 C 30.519531 -50.433594 31.953125 -50.3125 33.53125 -50.804688 C 31.785156 -55.285156 31.699219 -59 33.28125 -61.878906 C 34.0625 -63.394531 35.320312 -64.667969 36.984375 -65.691406 C 38.648438 -66.71875 40.777344 -67.578125 43.238281 -68.179688 C 46.136719 -68.835938 49.449219 -69.171875 53.175781 -69.183594 C 56.902344 -69.195312 60.929688 -69.171875 65.1875 -69.101562 C 62.652344 -67.894531 60.210938 -65.953125 57.839844 -63.421875 C 55.339844 -60.730469 52.867188 -57.8125 50.421875 -54.679688 C 47.984375 -51.472656 45.484375 -48.179688 43.074219 -44.753906 C 41.796875 -43.03125 40.582031 -41.390625 39.351562 -39.894531 C 38.128906 -38.328125 36.894531 -36.832031 35.71875 -35.496094 C 33.238281 -32.65625 30.765625 -30.335938 28.378906 -28.550781 C 25.988281 -26.765625 23.640625 -25.878906 21.253906 -25.882812 C 19.621094 -25.828125 18.363281 -26.34375 17.355469 -27.265625 C 16.347656 -28.183594 15.53125 -29.351562 14.984375 -30.773438 C 14.371094 -32.113281 13.960938 -33.628906 13.761719 -35.242188 C 13.5625 -36.859375 13.453125 -38.335938 13.566406 -39.839844 C 11.785156 -38.578125 10.15625 -37.257812 8.707031 -35.738281 C 7.253906 -34.214844 5.957031 -32.640625 4.835938 -30.859375 C 3.640625 -29.074219 2.683594 -27.167969 2.039062 -25.148438 C 1.320312 -23.121094 0.894531 -21.132812 0.855469 -19.039062 C 0.703125 -16.636719 1.058594 -14.367188 1.769531 -12.21875 C 2.484375 -10.070312 3.683594 -8.207031 5.203125 -6.753906 C 6.660156 -5.21875 8.511719 -4.109375 10.695312 -3.332031 C 12.878906 -2.558594 15.429688 -2.425781 18.367188 -2.789062 C 20.714844 -3.082031 22.964844 -4.179688 25.242188 -6.25 C 27.523438 -8.320312 29.8125 -10.914062 32.089844 -14.175781 C 34.378906 -17.367188 36.625 -20.921875 38.816406 -24.921875 C 41.003906 -28.917969 43.183594 -32.988281 45.421875 -37.214844 C 47.59375 -41.359375 49.847656 -45.441406 52.101562 -49.519531 C 54.289062 -53.519531 56.589844 -57.230469 58.871094 -60.492188 C 57.941406 -58.367188 57.046875 -55.945312 56.261719 -53.238281 C 55.480469 -50.535156 54.789062 -47.691406 54.175781 -44.78125 C 53.503906 -41.792969 52.976562 -38.820312 52.585938 -35.9375 C 52.207031 -32.984375 51.953125 -30.195312 51.914062 -27.507812 C 51.796875 -24.808594 51.804688 -22.351562 52.058594 -20.292969 C 52.3125 -18.238281 52.742188 -16.578125 53.410156 -15.390625 C 55.136719 -17.691406 56.683594 -19.671875 58.105469 -21.414062 L 60.238281 -24.0625 L 61.332031 -25.464844 C 61.71875 -25.960938 62.105469 -26.457031 62.628906 -27.042969 L 62.648438 -26.894531 L 64.320312 -29.039062 L 64.3125 -29.113281 C 67.363281 -33.367188 70.390625 -37.242188 73.3125 -40.734375 C 76.171875 -44.144531 79.105469 -47.5625 82.035156 -50.980469 C 80.289062 -48.230469 78.550781 -45.40625 76.949219 -42.675781 C 75.347656 -39.941406 73.894531 -37.230469 72.644531 -34.6875 C 71.328125 -32.066406 70.214844 -29.617188 69.308594 -27.269531 C 68.40625 -24.921875 67.78125 -22.757812 67.484375 -20.933594 C 67.140625 -18.878906 67.128906 -17.160156 67.457031 -15.710938 C 67.785156 -14.261719 68.382812 -13.066406 69.234375 -12.203125 C 70.019531 -11.257812 71 -10.558594 72.25 -10.117188 C 73.421875 -9.664062 74.707031 -9.523438 76.113281 -9.625 Z M 70.449219 -39.785156 L 63.710938 -31.574219 C 63.417969 -32.730469 63.253906 -34.050781 63.148438 -35.527344 C 63.039062 -37.007812 63.070312 -38.574219 63.226562 -40.308594 C 63.40625 -43.6875 63.722656 -47.152344 64.261719 -50.648438 C 64.796875 -54.144531 65.425781 -57.503906 66.210938 -60.804688 L 67.957031 -68.996094 C 70.199219 -68.972656 72.511719 -68.960938 74.738281 -69.015625 C 76.980469 -68.992188 79.347656 -69.136719 81.703125 -69.351562 C 84.660156 -69.566406 87.441406 -69.984375 90.203125 -70.550781 C 92.964844 -71.117188 95.621094 -71.964844 98.152344 -73.171875 C 97.492188 -72.496094 96.914062 -71.753906 96.261719 -71 C 95.609375 -70.25 94.964844 -69.425781 94.320312 -68.601562 L 94.191406 -68.433594 C 92.757812 -66.765625 91.316406 -65.171875 89.953125 -63.511719 C 88.519531 -61.84375 87.160156 -60.1875 85.789062 -58.601562 C 82.996094 -55.273438 80.339844 -52.039062 77.746094 -48.886719 C 75.15625 -45.734375 72.765625 -42.753906 70.449219 -39.785156 Z M 70.449219 -39.785156 "/></g></g></g><g fill="#000000" fill-opacity="1"><g transform="translate(222.515554, 229.264296)"><g><path d="M -2.453125 33.847656 C -0.597656 33.171875 1.273438 32.042969 3.148438 30.324219 C 5.023438 28.601562 6.863281 26.585938 8.644531 24.128906 C 10.4375 21.746094 12.011719 19.386719 13.507812 17.042969 C 15.007812 14.695312 16.296875 12.449219 17.457031 10.367188 C 18.007812 9.40625 18.496094 8.523438 18.917969 7.726562 C 19.34375 6.929688 19.710938 6.285156 20.085938 5.71875 C 21.246094 3.636719 22.46875 1.472656 23.683594 -0.761719 C 24.898438 -3 26.113281 -5.238281 27.308594 -7.621094 C 29.722656 -12.242188 32.003906 -16.699219 34.15625 -20.992188 C 36.308594 -25.28125 38.410156 -29.417969 40.324219 -33.230469 C 41.28125 -35.140625 42.183594 -36.890625 43.027344 -38.484375 C 43.875 -40.082031 44.582031 -41.585938 45.300781 -43.015625 L 34.949219 -41.738281 C 33.972656 -39.976562 33.070312 -38.226562 32.097656 -36.464844 C 31.121094 -34.703125 30.21875 -32.953125 29.308594 -31.273438 C 28.332031 -29.515625 27.421875 -27.835938 26.445312 -26.078125 C 25.472656 -24.316406 24.570312 -22.566406 23.667969 -20.8125 L 22.03125 -17.777344 C 21.292969 -16.496094 20.539062 -15.359375 19.703125 -14.285156 C 18.804688 -13.132812 17.800781 -12.1875 16.847656 -11.472656 C 15.824219 -10.675781 14.824219 -10.328125 13.78125 -10.347656 C 13.265625 -10.285156 12.925781 -10.617188 12.769531 -11.269531 C 12.570312 -11.691406 12.691406 -12.523438 13.132812 -13.773438 C 13.574219 -15.019531 14.273438 -16.597656 15.242188 -18.429688 C 16.132812 -20.253906 17.027344 -22.082031 17.992188 -23.914062 C 18.894531 -25.664062 19.660156 -27.324219 20.359375 -28.902344 C 21.058594 -30.480469 21.4375 -31.644531 21.472656 -32.542969 C 21.511719 -34.039062 21.292969 -35.203125 20.875 -36.195312 C 20.453125 -37.1875 19.839844 -37.933594 19.105469 -38.4375 C 18.214844 -39 17.21875 -39.25 16.171875 -39.269531 C 15.125 -39.289062 14.042969 -39.003906 12.976562 -38.574219 C 13.5625 -38.050781 13.992188 -37.582031 14.195312 -37.160156 C 14.40625 -36.664062 14.394531 -36.140625 14.3125 -35.609375 C 14.164062 -34.996094 13.878906 -34.289062 13.519531 -33.574219 C 13.097656 -32.777344 12.601562 -31.96875 12.121094 -31.015625 L 12.128906 -30.941406 L 1.304688 -12.386719 C 0.917969 -11.890625 0.621094 -11.257812 0.261719 -10.542969 C -0.09375 -9.828125 -0.445312 -9.039062 -0.722656 -8.257812 C -1.570312 -5.472656 -1.546875 -3.460938 -0.796875 -2.210938 C -0.410156 -1.515625 0.113281 -0.910156 0.753906 -0.539062 C 1.402344 -0.0976562 2.109375 0.1875 2.945312 0.308594 C 3.714844 0.511719 4.605469 0.476562 5.550781 0.285156 C 6.433594 0.175781 7.359375 -0.164062 8.1875 -0.710938 C 9.859375 -1.664062 11.492188 -2.910156 12.953125 -4.359375 C 14.414062 -5.804688 15.71875 -7.308594 16.871094 -8.867188 C 17.882812 -10.332031 18.71875 -11.40625 19.378906 -12.085938 L 12.351562 0.414062 C 7.226562 2.386719 3.167969 4.527344 0.0351562 6.929688 C -3.234375 9.417969 -5.613281 11.875 -7.195312 14.15625 C -8.84375 16.523438 -9.917969 18.667969 -10.5 20.601562 C -11.144531 22.621094 -11.441406 24.445312 -11.378906 26.152344 C -11.316406 27.859375 -10.988281 29.3125 -10.3125 30.570312 C -10.074219 31.285156 -9.625 31.898438 -9.113281 32.433594 C -8.601562 32.964844 -8.023438 33.417969 -7.382812 33.785156 C -6.738281 34.152344 -5.976562 34.28125 -5.152344 34.328125 C -4.328125 34.375 -3.445312 34.269531 -2.453125 33.847656 Z M -4.59375 23.152344 C -5.660156 22.988281 -6.320312 22.472656 -6.425781 21.589844 C -6.535156 20.710938 -6.433594 19.726562 -5.972656 18.628906 C -5.578125 17.609375 -5.035156 16.574219 -4.417969 15.527344 C -3.800781 14.484375 -3.167969 13.585938 -2.578125 12.917969 C -0.742188 10.898438 1.355469 9.152344 3.703125 7.667969 C 6.054688 6.183594 8.351562 4.855469 10.667969 3.675781 L 10.75 3.742188 L 9.230469 6.539062 C 8.863281 7.179688 8.503906 7.894531 8.136719 8.535156 C 7.777344 9.25 7.34375 9.976562 6.914062 10.699219 C 6.054688 12.222656 5.128906 13.753906 4.125 15.292969 C 3.132812 16.90625 2.183594 18.292969 1.210938 19.457031 C 0.171875 20.703125 -0.902344 21.652344 -1.859375 22.367188 C -2.8125 23.082031 -3.75 23.347656 -4.59375 23.152344 Z M -4.59375 23.152344 "/></g></g></g></svg>